<mxfile host="Electron" agent="Mozilla/5.0 (Windows NT 10.0; Win64; x64) AppleWebKit/537.36 (KHTML, like Gecko) draw.io/28.0.4 Chrome/138.0.7204.97 Electron/37.2.1 Safari/537.36" version="28.0.4">
  <diagram name="Page-1" id="YDNKjtS4J8mXfI81rzc8">
    <mxGraphModel dx="1431" dy="2514" grid="1" gridSize="10" guides="1" tooltips="1" connect="1" arrows="1" fold="1" page="1" pageScale="1" pageWidth="850" pageHeight="1100" math="0" shadow="0">
      <root>
        <mxCell id="0" />
        <mxCell id="1" parent="0" />
        <mxCell id="ApzVfPZ92ETSSqykohNE-93" value="&lt;font face=&quot;Fira Code&quot;&gt;USERS SERVICE&lt;/font&gt;" style="swimlane;whiteSpace=wrap;html=1;fillColor=#DADADA;" vertex="1" parent="1">
          <mxGeometry x="40" y="40" width="480" height="580" as="geometry" />
        </mxCell>
        <mxCell id="ApzVfPZ92ETSSqykohNE-47" value="&lt;font face=&quot;Fira Code&quot;&gt;&lt;b&gt;Doctors&lt;/b&gt;&lt;/font&gt;" style="shape=table;startSize=30;container=1;collapsible=1;childLayout=tableLayout;fixedRows=1;rowLines=0;align=center;resizeLast=1;html=1;spacing=2;spacingTop=0;verticalAlign=middle;" vertex="1" parent="ApzVfPZ92ETSSqykohNE-93">
          <mxGeometry x="260" y="60" width="180" height="480" as="geometry">
            <mxRectangle x="80" y="80" width="70" height="30" as="alternateBounds" />
          </mxGeometry>
        </mxCell>
        <mxCell id="ApzVfPZ92ETSSqykohNE-48" value="" style="shape=tableRow;horizontal=0;startSize=0;swimlaneHead=0;swimlaneBody=0;fillColor=none;collapsible=0;dropTarget=0;points=[[0,0.5],[1,0.5]];portConstraint=eastwest;top=0;left=0;right=0;bottom=1;fontFamily=Fira Code;spacing=2;spacingTop=0;verticalAlign=middle;" vertex="1" parent="ApzVfPZ92ETSSqykohNE-47">
          <mxGeometry y="30" width="180" height="30" as="geometry" />
        </mxCell>
        <mxCell id="ApzVfPZ92ETSSqykohNE-49" value="PK" style="shape=partialRectangle;connectable=0;fillColor=none;top=0;left=0;bottom=0;right=0;fontStyle=1;overflow=hidden;whiteSpace=wrap;html=1;fontFamily=Fira Code;spacing=2;spacingTop=0;verticalAlign=middle;" vertex="1" parent="ApzVfPZ92ETSSqykohNE-48">
          <mxGeometry width="30" height="30" as="geometry">
            <mxRectangle width="30" height="30" as="alternateBounds" />
          </mxGeometry>
        </mxCell>
        <mxCell id="ApzVfPZ92ETSSqykohNE-50" value="id" style="shape=partialRectangle;connectable=0;fillColor=none;top=0;left=0;bottom=0;right=0;align=left;spacingLeft=6;fontStyle=5;overflow=hidden;whiteSpace=wrap;html=1;fontFamily=Fira Code;spacing=2;spacingTop=0;verticalAlign=middle;" vertex="1" parent="ApzVfPZ92ETSSqykohNE-48">
          <mxGeometry x="30" width="150" height="30" as="geometry">
            <mxRectangle width="150" height="30" as="alternateBounds" />
          </mxGeometry>
        </mxCell>
        <mxCell id="ApzVfPZ92ETSSqykohNE-51" value="" style="shape=tableRow;horizontal=0;startSize=0;swimlaneHead=0;swimlaneBody=0;fillColor=none;collapsible=0;dropTarget=0;points=[[0,0.5],[1,0.5]];portConstraint=eastwest;top=0;left=0;right=0;bottom=0;fontFamily=Fira Code;spacing=2;spacingTop=0;verticalAlign=middle;" vertex="1" parent="ApzVfPZ92ETSSqykohNE-47">
          <mxGeometry y="60" width="180" height="30" as="geometry" />
        </mxCell>
        <mxCell id="ApzVfPZ92ETSSqykohNE-52" value="" style="shape=partialRectangle;connectable=0;fillColor=none;top=0;left=0;bottom=0;right=0;editable=1;overflow=hidden;whiteSpace=wrap;html=1;fontFamily=Fira Code;spacing=2;spacingTop=0;verticalAlign=middle;" vertex="1" parent="ApzVfPZ92ETSSqykohNE-51">
          <mxGeometry width="30" height="30" as="geometry">
            <mxRectangle width="30" height="30" as="alternateBounds" />
          </mxGeometry>
        </mxCell>
        <mxCell id="ApzVfPZ92ETSSqykohNE-53" value="role" style="shape=partialRectangle;connectable=0;fillColor=none;top=0;left=0;bottom=0;right=0;align=left;spacingLeft=6;overflow=hidden;whiteSpace=wrap;html=1;fontFamily=Fira Code;spacing=2;spacingTop=0;verticalAlign=middle;" vertex="1" parent="ApzVfPZ92ETSSqykohNE-51">
          <mxGeometry x="30" width="150" height="30" as="geometry">
            <mxRectangle width="150" height="30" as="alternateBounds" />
          </mxGeometry>
        </mxCell>
        <mxCell id="ApzVfPZ92ETSSqykohNE-54" value="" style="shape=tableRow;horizontal=0;startSize=0;swimlaneHead=0;swimlaneBody=0;fillColor=none;collapsible=0;dropTarget=0;points=[[0,0.5],[1,0.5]];portConstraint=eastwest;top=0;left=0;right=0;bottom=0;fontFamily=Fira Code;spacing=2;spacingTop=0;verticalAlign=middle;" vertex="1" parent="ApzVfPZ92ETSSqykohNE-47">
          <mxGeometry y="90" width="180" height="30" as="geometry" />
        </mxCell>
        <mxCell id="ApzVfPZ92ETSSqykohNE-55" value="" style="shape=partialRectangle;connectable=0;fillColor=none;top=0;left=0;bottom=0;right=0;editable=1;overflow=hidden;whiteSpace=wrap;html=1;fontFamily=Fira Code;spacing=2;spacingTop=0;verticalAlign=middle;" vertex="1" parent="ApzVfPZ92ETSSqykohNE-54">
          <mxGeometry width="30" height="30" as="geometry">
            <mxRectangle width="30" height="30" as="alternateBounds" />
          </mxGeometry>
        </mxCell>
        <mxCell id="ApzVfPZ92ETSSqykohNE-56" value="matricule" style="shape=partialRectangle;connectable=0;fillColor=none;top=0;left=0;bottom=0;right=0;align=left;spacingLeft=6;overflow=hidden;whiteSpace=wrap;html=1;fontFamily=Fira Code;spacing=2;spacingTop=0;verticalAlign=middle;" vertex="1" parent="ApzVfPZ92ETSSqykohNE-54">
          <mxGeometry x="30" width="150" height="30" as="geometry">
            <mxRectangle width="150" height="30" as="alternateBounds" />
          </mxGeometry>
        </mxCell>
        <mxCell id="ApzVfPZ92ETSSqykohNE-57" value="" style="shape=tableRow;horizontal=0;startSize=0;swimlaneHead=0;swimlaneBody=0;fillColor=none;collapsible=0;dropTarget=0;points=[[0,0.5],[1,0.5]];portConstraint=eastwest;top=0;left=0;right=0;bottom=0;fontFamily=Fira Code;spacing=2;spacingTop=0;verticalAlign=middle;" vertex="1" parent="ApzVfPZ92ETSSqykohNE-47">
          <mxGeometry y="120" width="180" height="30" as="geometry" />
        </mxCell>
        <mxCell id="ApzVfPZ92ETSSqykohNE-58" value="" style="shape=partialRectangle;connectable=0;fillColor=none;top=0;left=0;bottom=0;right=0;editable=1;overflow=hidden;whiteSpace=wrap;html=1;fontFamily=Fira Code;spacing=2;spacingTop=0;verticalAlign=middle;" vertex="1" parent="ApzVfPZ92ETSSqykohNE-57">
          <mxGeometry width="30" height="30" as="geometry">
            <mxRectangle width="30" height="30" as="alternateBounds" />
          </mxGeometry>
        </mxCell>
        <mxCell id="ApzVfPZ92ETSSqykohNE-59" value="email" style="shape=partialRectangle;connectable=0;fillColor=none;top=0;left=0;bottom=0;right=0;align=left;spacingLeft=6;overflow=hidden;whiteSpace=wrap;html=1;fontFamily=Fira Code;spacing=2;spacingTop=0;verticalAlign=middle;" vertex="1" parent="ApzVfPZ92ETSSqykohNE-57">
          <mxGeometry x="30" width="150" height="30" as="geometry">
            <mxRectangle width="150" height="30" as="alternateBounds" />
          </mxGeometry>
        </mxCell>
        <mxCell id="ApzVfPZ92ETSSqykohNE-60" style="shape=tableRow;horizontal=0;startSize=0;swimlaneHead=0;swimlaneBody=0;fillColor=none;collapsible=0;dropTarget=0;points=[[0,0.5],[1,0.5]];portConstraint=eastwest;top=0;left=0;right=0;bottom=0;fontFamily=Fira Code;spacing=2;spacingTop=0;verticalAlign=middle;" vertex="1" parent="ApzVfPZ92ETSSqykohNE-47">
          <mxGeometry y="150" width="180" height="30" as="geometry" />
        </mxCell>
        <mxCell id="ApzVfPZ92ETSSqykohNE-61" value="" style="shape=partialRectangle;connectable=0;fillColor=none;top=0;left=0;bottom=0;right=0;editable=1;overflow=hidden;whiteSpace=wrap;html=1;fontFamily=Fira Code;spacing=2;spacingTop=0;verticalAlign=middle;" vertex="1" parent="ApzVfPZ92ETSSqykohNE-60">
          <mxGeometry width="30" height="30" as="geometry">
            <mxRectangle width="30" height="30" as="alternateBounds" />
          </mxGeometry>
        </mxCell>
        <mxCell id="ApzVfPZ92ETSSqykohNE-62" value="password" style="shape=partialRectangle;connectable=0;fillColor=none;top=0;left=0;bottom=0;right=0;align=left;spacingLeft=6;overflow=hidden;whiteSpace=wrap;html=1;fontFamily=Fira Code;spacing=2;spacingTop=0;verticalAlign=middle;" vertex="1" parent="ApzVfPZ92ETSSqykohNE-60">
          <mxGeometry x="30" width="150" height="30" as="geometry">
            <mxRectangle width="150" height="30" as="alternateBounds" />
          </mxGeometry>
        </mxCell>
        <mxCell id="ApzVfPZ92ETSSqykohNE-63" style="shape=tableRow;horizontal=0;startSize=0;swimlaneHead=0;swimlaneBody=0;fillColor=none;collapsible=0;dropTarget=0;points=[[0,0.5],[1,0.5]];portConstraint=eastwest;top=0;left=0;right=0;bottom=0;fontFamily=Fira Code;spacing=2;spacingTop=0;verticalAlign=middle;" vertex="1" parent="ApzVfPZ92ETSSqykohNE-47">
          <mxGeometry y="180" width="180" height="30" as="geometry" />
        </mxCell>
        <mxCell id="ApzVfPZ92ETSSqykohNE-64" style="shape=partialRectangle;connectable=0;fillColor=none;top=0;left=0;bottom=0;right=0;editable=1;overflow=hidden;whiteSpace=wrap;html=1;fontFamily=Fira Code;spacing=2;spacingTop=0;verticalAlign=middle;" vertex="1" parent="ApzVfPZ92ETSSqykohNE-63">
          <mxGeometry width="30" height="30" as="geometry">
            <mxRectangle width="30" height="30" as="alternateBounds" />
          </mxGeometry>
        </mxCell>
        <mxCell id="ApzVfPZ92ETSSqykohNE-65" value="firstName" style="shape=partialRectangle;connectable=0;fillColor=none;top=0;left=0;bottom=0;right=0;align=left;spacingLeft=6;overflow=hidden;whiteSpace=wrap;html=1;fontFamily=Fira Code;spacing=2;spacingTop=0;verticalAlign=middle;" vertex="1" parent="ApzVfPZ92ETSSqykohNE-63">
          <mxGeometry x="30" width="150" height="30" as="geometry">
            <mxRectangle width="150" height="30" as="alternateBounds" />
          </mxGeometry>
        </mxCell>
        <mxCell id="ApzVfPZ92ETSSqykohNE-66" style="shape=tableRow;horizontal=0;startSize=0;swimlaneHead=0;swimlaneBody=0;fillColor=none;collapsible=0;dropTarget=0;points=[[0,0.5],[1,0.5]];portConstraint=eastwest;top=0;left=0;right=0;bottom=0;fontFamily=Fira Code;spacing=2;spacingTop=0;verticalAlign=middle;" vertex="1" parent="ApzVfPZ92ETSSqykohNE-47">
          <mxGeometry y="210" width="180" height="30" as="geometry" />
        </mxCell>
        <mxCell id="ApzVfPZ92ETSSqykohNE-67" style="shape=partialRectangle;connectable=0;fillColor=none;top=0;left=0;bottom=0;right=0;editable=1;overflow=hidden;whiteSpace=wrap;html=1;fontFamily=Fira Code;spacing=2;spacingTop=0;verticalAlign=middle;" vertex="1" parent="ApzVfPZ92ETSSqykohNE-66">
          <mxGeometry width="30" height="30" as="geometry">
            <mxRectangle width="30" height="30" as="alternateBounds" />
          </mxGeometry>
        </mxCell>
        <mxCell id="ApzVfPZ92ETSSqykohNE-68" value="lastName" style="shape=partialRectangle;connectable=0;fillColor=none;top=0;left=0;bottom=0;right=0;align=left;spacingLeft=6;overflow=hidden;whiteSpace=wrap;html=1;fontFamily=Fira Code;spacing=2;spacingTop=0;verticalAlign=middle;" vertex="1" parent="ApzVfPZ92ETSSqykohNE-66">
          <mxGeometry x="30" width="150" height="30" as="geometry">
            <mxRectangle width="150" height="30" as="alternateBounds" />
          </mxGeometry>
        </mxCell>
        <mxCell id="ApzVfPZ92ETSSqykohNE-69" style="shape=tableRow;horizontal=0;startSize=0;swimlaneHead=0;swimlaneBody=0;fillColor=none;collapsible=0;dropTarget=0;points=[[0,0.5],[1,0.5]];portConstraint=eastwest;top=0;left=0;right=0;bottom=0;fontFamily=Fira Code;spacing=2;spacingTop=0;verticalAlign=middle;" vertex="1" parent="ApzVfPZ92ETSSqykohNE-47">
          <mxGeometry y="240" width="180" height="30" as="geometry" />
        </mxCell>
        <mxCell id="ApzVfPZ92ETSSqykohNE-70" style="shape=partialRectangle;connectable=0;fillColor=none;top=0;left=0;bottom=0;right=0;editable=1;overflow=hidden;whiteSpace=wrap;html=1;fontFamily=Fira Code;spacing=2;spacingTop=0;verticalAlign=middle;" vertex="1" parent="ApzVfPZ92ETSSqykohNE-69">
          <mxGeometry width="30" height="30" as="geometry">
            <mxRectangle width="30" height="30" as="alternateBounds" />
          </mxGeometry>
        </mxCell>
        <mxCell id="ApzVfPZ92ETSSqykohNE-71" value="dateOfBirth" style="shape=partialRectangle;connectable=0;fillColor=none;top=0;left=0;bottom=0;right=0;align=left;spacingLeft=6;overflow=hidden;whiteSpace=wrap;html=1;fontFamily=Fira Code;spacing=2;spacingTop=0;verticalAlign=middle;" vertex="1" parent="ApzVfPZ92ETSSqykohNE-69">
          <mxGeometry x="30" width="150" height="30" as="geometry">
            <mxRectangle width="150" height="30" as="alternateBounds" />
          </mxGeometry>
        </mxCell>
        <mxCell id="ApzVfPZ92ETSSqykohNE-72" style="shape=tableRow;horizontal=0;startSize=0;swimlaneHead=0;swimlaneBody=0;fillColor=none;collapsible=0;dropTarget=0;points=[[0,0.5],[1,0.5]];portConstraint=eastwest;top=0;left=0;right=0;bottom=0;fontFamily=Fira Code;spacing=2;spacingTop=0;verticalAlign=middle;" vertex="1" parent="ApzVfPZ92ETSSqykohNE-47">
          <mxGeometry y="270" width="180" height="30" as="geometry" />
        </mxCell>
        <mxCell id="ApzVfPZ92ETSSqykohNE-73" style="shape=partialRectangle;connectable=0;fillColor=none;top=0;left=0;bottom=0;right=0;editable=1;overflow=hidden;whiteSpace=wrap;html=1;fontFamily=Fira Code;spacing=2;spacingTop=0;verticalAlign=middle;" vertex="1" parent="ApzVfPZ92ETSSqykohNE-72">
          <mxGeometry width="30" height="30" as="geometry">
            <mxRectangle width="30" height="30" as="alternateBounds" />
          </mxGeometry>
        </mxCell>
        <mxCell id="ApzVfPZ92ETSSqykohNE-74" value="sex" style="shape=partialRectangle;connectable=0;fillColor=none;top=0;left=0;bottom=0;right=0;align=left;spacingLeft=6;overflow=hidden;whiteSpace=wrap;html=1;fontFamily=Fira Code;spacing=2;spacingTop=0;verticalAlign=middle;" vertex="1" parent="ApzVfPZ92ETSSqykohNE-72">
          <mxGeometry x="30" width="150" height="30" as="geometry">
            <mxRectangle width="150" height="30" as="alternateBounds" />
          </mxGeometry>
        </mxCell>
        <mxCell id="ApzVfPZ92ETSSqykohNE-75" style="shape=tableRow;horizontal=0;startSize=0;swimlaneHead=0;swimlaneBody=0;fillColor=none;collapsible=0;dropTarget=0;points=[[0,0.5],[1,0.5]];portConstraint=eastwest;top=0;left=0;right=0;bottom=0;fontFamily=Fira Code;spacing=2;spacingTop=0;verticalAlign=middle;" vertex="1" parent="ApzVfPZ92ETSSqykohNE-47">
          <mxGeometry y="300" width="180" height="30" as="geometry" />
        </mxCell>
        <mxCell id="ApzVfPZ92ETSSqykohNE-76" style="shape=partialRectangle;connectable=0;fillColor=none;top=0;left=0;bottom=0;right=0;editable=1;overflow=hidden;whiteSpace=wrap;html=1;fontFamily=Fira Code;spacing=2;spacingTop=0;verticalAlign=middle;" vertex="1" parent="ApzVfPZ92ETSSqykohNE-75">
          <mxGeometry width="30" height="30" as="geometry">
            <mxRectangle width="30" height="30" as="alternateBounds" />
          </mxGeometry>
        </mxCell>
        <mxCell id="ApzVfPZ92ETSSqykohNE-77" value="telephone" style="shape=partialRectangle;connectable=0;fillColor=none;top=0;left=0;bottom=0;right=0;align=left;spacingLeft=6;overflow=hidden;whiteSpace=wrap;html=1;fontFamily=Fira Code;spacing=2;spacingTop=0;verticalAlign=middle;" vertex="1" parent="ApzVfPZ92ETSSqykohNE-75">
          <mxGeometry x="30" width="150" height="30" as="geometry">
            <mxRectangle width="150" height="30" as="alternateBounds" />
          </mxGeometry>
        </mxCell>
        <mxCell id="ApzVfPZ92ETSSqykohNE-78" style="shape=tableRow;horizontal=0;startSize=0;swimlaneHead=0;swimlaneBody=0;fillColor=none;collapsible=0;dropTarget=0;points=[[0,0.5],[1,0.5]];portConstraint=eastwest;top=0;left=0;right=0;bottom=0;fontFamily=Fira Code;spacing=2;spacingTop=0;verticalAlign=middle;" vertex="1" parent="ApzVfPZ92ETSSqykohNE-47">
          <mxGeometry y="330" width="180" height="30" as="geometry" />
        </mxCell>
        <mxCell id="ApzVfPZ92ETSSqykohNE-79" style="shape=partialRectangle;connectable=0;fillColor=none;top=0;left=0;bottom=0;right=0;editable=1;overflow=hidden;whiteSpace=wrap;html=1;fontFamily=Fira Code;spacing=2;spacingTop=0;verticalAlign=middle;" vertex="1" parent="ApzVfPZ92ETSSqykohNE-78">
          <mxGeometry width="30" height="30" as="geometry">
            <mxRectangle width="30" height="30" as="alternateBounds" />
          </mxGeometry>
        </mxCell>
        <mxCell id="ApzVfPZ92ETSSqykohNE-80" value="emergencyContact" style="shape=partialRectangle;connectable=0;fillColor=none;top=0;left=0;bottom=0;right=0;align=left;spacingLeft=6;overflow=hidden;whiteSpace=wrap;html=1;fontFamily=Fira Code;spacing=2;spacingTop=0;verticalAlign=middle;" vertex="1" parent="ApzVfPZ92ETSSqykohNE-78">
          <mxGeometry x="30" width="150" height="30" as="geometry">
            <mxRectangle width="150" height="30" as="alternateBounds" />
          </mxGeometry>
        </mxCell>
        <mxCell id="ApzVfPZ92ETSSqykohNE-81" style="shape=tableRow;horizontal=0;startSize=0;swimlaneHead=0;swimlaneBody=0;fillColor=none;collapsible=0;dropTarget=0;points=[[0,0.5],[1,0.5]];portConstraint=eastwest;top=0;left=0;right=0;bottom=0;fontFamily=Fira Code;spacing=2;spacingTop=0;verticalAlign=middle;" vertex="1" parent="ApzVfPZ92ETSSqykohNE-47">
          <mxGeometry y="360" width="180" height="30" as="geometry" />
        </mxCell>
        <mxCell id="ApzVfPZ92ETSSqykohNE-82" style="shape=partialRectangle;connectable=0;fillColor=none;top=0;left=0;bottom=0;right=0;editable=1;overflow=hidden;whiteSpace=wrap;html=1;fontFamily=Fira Code;spacing=2;spacingTop=0;verticalAlign=middle;" vertex="1" parent="ApzVfPZ92ETSSqykohNE-81">
          <mxGeometry width="30" height="30" as="geometry">
            <mxRectangle width="30" height="30" as="alternateBounds" />
          </mxGeometry>
        </mxCell>
        <mxCell id="ApzVfPZ92ETSSqykohNE-83" value="height&amp;nbsp;" style="shape=partialRectangle;connectable=0;fillColor=none;top=0;left=0;bottom=0;right=0;align=left;spacingLeft=6;overflow=hidden;whiteSpace=wrap;html=1;fontFamily=Fira Code;spacing=2;spacingTop=0;verticalAlign=middle;" vertex="1" parent="ApzVfPZ92ETSSqykohNE-81">
          <mxGeometry x="30" width="150" height="30" as="geometry">
            <mxRectangle width="150" height="30" as="alternateBounds" />
          </mxGeometry>
        </mxCell>
        <mxCell id="ApzVfPZ92ETSSqykohNE-84" style="shape=tableRow;horizontal=0;startSize=0;swimlaneHead=0;swimlaneBody=0;fillColor=none;collapsible=0;dropTarget=0;points=[[0,0.5],[1,0.5]];portConstraint=eastwest;top=0;left=0;right=0;bottom=0;fontFamily=Fira Code;spacing=2;spacingTop=0;verticalAlign=middle;" vertex="1" parent="ApzVfPZ92ETSSqykohNE-47">
          <mxGeometry y="390" width="180" height="30" as="geometry" />
        </mxCell>
        <mxCell id="ApzVfPZ92ETSSqykohNE-85" style="shape=partialRectangle;connectable=0;fillColor=none;top=0;left=0;bottom=0;right=0;editable=1;overflow=hidden;whiteSpace=wrap;html=1;fontFamily=Fira Code;spacing=2;spacingTop=0;verticalAlign=middle;" vertex="1" parent="ApzVfPZ92ETSSqykohNE-84">
          <mxGeometry width="30" height="30" as="geometry">
            <mxRectangle width="30" height="30" as="alternateBounds" />
          </mxGeometry>
        </mxCell>
        <mxCell id="ApzVfPZ92ETSSqykohNE-86" value="pound" style="shape=partialRectangle;connectable=0;fillColor=none;top=0;left=0;bottom=0;right=0;align=left;spacingLeft=6;overflow=hidden;whiteSpace=wrap;html=1;fontFamily=Fira Code;spacing=2;spacingTop=0;verticalAlign=middle;" vertex="1" parent="ApzVfPZ92ETSSqykohNE-84">
          <mxGeometry x="30" width="150" height="30" as="geometry">
            <mxRectangle width="150" height="30" as="alternateBounds" />
          </mxGeometry>
        </mxCell>
        <mxCell id="ApzVfPZ92ETSSqykohNE-87" style="shape=tableRow;horizontal=0;startSize=0;swimlaneHead=0;swimlaneBody=0;fillColor=none;collapsible=0;dropTarget=0;points=[[0,0.5],[1,0.5]];portConstraint=eastwest;top=0;left=0;right=0;bottom=0;fontFamily=Fira Code;spacing=2;spacingTop=0;verticalAlign=middle;" vertex="1" parent="ApzVfPZ92ETSSqykohNE-47">
          <mxGeometry y="420" width="180" height="30" as="geometry" />
        </mxCell>
        <mxCell id="ApzVfPZ92ETSSqykohNE-88" style="shape=partialRectangle;connectable=0;fillColor=none;top=0;left=0;bottom=0;right=0;editable=1;overflow=hidden;whiteSpace=wrap;html=1;fontFamily=Fira Code;spacing=2;spacingTop=0;verticalAlign=middle;" vertex="1" parent="ApzVfPZ92ETSSqykohNE-87">
          <mxGeometry width="30" height="30" as="geometry">
            <mxRectangle width="30" height="30" as="alternateBounds" />
          </mxGeometry>
        </mxCell>
        <mxCell id="ApzVfPZ92ETSSqykohNE-89" value="bloodGroup" style="shape=partialRectangle;connectable=0;fillColor=none;top=0;left=0;bottom=0;right=0;align=left;spacingLeft=6;overflow=hidden;whiteSpace=wrap;html=1;fontFamily=Fira Code;spacing=2;spacingTop=0;verticalAlign=middle;" vertex="1" parent="ApzVfPZ92ETSSqykohNE-87">
          <mxGeometry x="30" width="150" height="30" as="geometry">
            <mxRectangle width="150" height="30" as="alternateBounds" />
          </mxGeometry>
        </mxCell>
        <mxCell id="ApzVfPZ92ETSSqykohNE-90" style="shape=tableRow;horizontal=0;startSize=0;swimlaneHead=0;swimlaneBody=0;fillColor=none;collapsible=0;dropTarget=0;points=[[0,0.5],[1,0.5]];portConstraint=eastwest;top=0;left=0;right=0;bottom=0;fontFamily=Fira Code;spacing=2;spacingTop=0;verticalAlign=middle;" vertex="1" parent="ApzVfPZ92ETSSqykohNE-47">
          <mxGeometry y="450" width="180" height="30" as="geometry" />
        </mxCell>
        <mxCell id="ApzVfPZ92ETSSqykohNE-91" style="shape=partialRectangle;connectable=0;fillColor=none;top=0;left=0;bottom=0;right=0;editable=1;overflow=hidden;whiteSpace=wrap;html=1;fontFamily=Fira Code;spacing=2;spacingTop=0;verticalAlign=middle;" vertex="1" parent="ApzVfPZ92ETSSqykohNE-90">
          <mxGeometry width="30" height="30" as="geometry">
            <mxRectangle width="30" height="30" as="alternateBounds" />
          </mxGeometry>
        </mxCell>
        <mxCell id="ApzVfPZ92ETSSqykohNE-92" value="speciality" style="shape=partialRectangle;connectable=0;fillColor=none;top=0;left=0;bottom=0;right=0;align=left;spacingLeft=6;overflow=hidden;whiteSpace=wrap;html=1;fontFamily=Fira Code;spacing=2;spacingTop=0;verticalAlign=middle;" vertex="1" parent="ApzVfPZ92ETSSqykohNE-90">
          <mxGeometry x="30" width="150" height="30" as="geometry">
            <mxRectangle width="150" height="30" as="alternateBounds" />
          </mxGeometry>
        </mxCell>
        <mxCell id="ApzVfPZ92ETSSqykohNE-1" value="&lt;font face=&quot;Fira Code&quot;&gt;&lt;b&gt;Patients&lt;/b&gt;&lt;/font&gt;" style="shape=table;startSize=30;container=1;collapsible=1;childLayout=tableLayout;fixedRows=1;rowLines=0;align=center;resizeLast=1;html=1;spacing=2;spacingTop=0;verticalAlign=middle;" vertex="1" parent="ApzVfPZ92ETSSqykohNE-93">
          <mxGeometry x="40" y="60" width="180" height="450" as="geometry">
            <mxRectangle x="80" y="80" width="70" height="30" as="alternateBounds" />
          </mxGeometry>
        </mxCell>
        <mxCell id="ApzVfPZ92ETSSqykohNE-2" value="" style="shape=tableRow;horizontal=0;startSize=0;swimlaneHead=0;swimlaneBody=0;fillColor=none;collapsible=0;dropTarget=0;points=[[0,0.5],[1,0.5]];portConstraint=eastwest;top=0;left=0;right=0;bottom=1;fontFamily=Fira Code;spacing=2;spacingTop=0;verticalAlign=middle;" vertex="1" parent="ApzVfPZ92ETSSqykohNE-1">
          <mxGeometry y="30" width="180" height="30" as="geometry" />
        </mxCell>
        <mxCell id="ApzVfPZ92ETSSqykohNE-3" value="PK" style="shape=partialRectangle;connectable=0;fillColor=none;top=0;left=0;bottom=0;right=0;fontStyle=1;overflow=hidden;whiteSpace=wrap;html=1;fontFamily=Fira Code;spacing=2;spacingTop=0;verticalAlign=middle;" vertex="1" parent="ApzVfPZ92ETSSqykohNE-2">
          <mxGeometry width="30" height="30" as="geometry">
            <mxRectangle width="30" height="30" as="alternateBounds" />
          </mxGeometry>
        </mxCell>
        <mxCell id="ApzVfPZ92ETSSqykohNE-4" value="id" style="shape=partialRectangle;connectable=0;fillColor=none;top=0;left=0;bottom=0;right=0;align=left;spacingLeft=6;fontStyle=5;overflow=hidden;whiteSpace=wrap;html=1;fontFamily=Fira Code;spacing=2;spacingTop=0;verticalAlign=middle;" vertex="1" parent="ApzVfPZ92ETSSqykohNE-2">
          <mxGeometry x="30" width="150" height="30" as="geometry">
            <mxRectangle width="150" height="30" as="alternateBounds" />
          </mxGeometry>
        </mxCell>
        <mxCell id="ApzVfPZ92ETSSqykohNE-5" value="" style="shape=tableRow;horizontal=0;startSize=0;swimlaneHead=0;swimlaneBody=0;fillColor=none;collapsible=0;dropTarget=0;points=[[0,0.5],[1,0.5]];portConstraint=eastwest;top=0;left=0;right=0;bottom=0;fontFamily=Fira Code;spacing=2;spacingTop=0;verticalAlign=middle;" vertex="1" parent="ApzVfPZ92ETSSqykohNE-1">
          <mxGeometry y="60" width="180" height="30" as="geometry" />
        </mxCell>
        <mxCell id="ApzVfPZ92ETSSqykohNE-6" value="" style="shape=partialRectangle;connectable=0;fillColor=none;top=0;left=0;bottom=0;right=0;editable=1;overflow=hidden;whiteSpace=wrap;html=1;fontFamily=Fira Code;spacing=2;spacingTop=0;verticalAlign=middle;" vertex="1" parent="ApzVfPZ92ETSSqykohNE-5">
          <mxGeometry width="30" height="30" as="geometry">
            <mxRectangle width="30" height="30" as="alternateBounds" />
          </mxGeometry>
        </mxCell>
        <mxCell id="ApzVfPZ92ETSSqykohNE-7" value="role" style="shape=partialRectangle;connectable=0;fillColor=none;top=0;left=0;bottom=0;right=0;align=left;spacingLeft=6;overflow=hidden;whiteSpace=wrap;html=1;fontFamily=Fira Code;spacing=2;spacingTop=0;verticalAlign=middle;" vertex="1" parent="ApzVfPZ92ETSSqykohNE-5">
          <mxGeometry x="30" width="150" height="30" as="geometry">
            <mxRectangle width="150" height="30" as="alternateBounds" />
          </mxGeometry>
        </mxCell>
        <mxCell id="ApzVfPZ92ETSSqykohNE-8" value="" style="shape=tableRow;horizontal=0;startSize=0;swimlaneHead=0;swimlaneBody=0;fillColor=none;collapsible=0;dropTarget=0;points=[[0,0.5],[1,0.5]];portConstraint=eastwest;top=0;left=0;right=0;bottom=0;fontFamily=Fira Code;spacing=2;spacingTop=0;verticalAlign=middle;" vertex="1" parent="ApzVfPZ92ETSSqykohNE-1">
          <mxGeometry y="90" width="180" height="30" as="geometry" />
        </mxCell>
        <mxCell id="ApzVfPZ92ETSSqykohNE-9" value="" style="shape=partialRectangle;connectable=0;fillColor=none;top=0;left=0;bottom=0;right=0;editable=1;overflow=hidden;whiteSpace=wrap;html=1;fontFamily=Fira Code;spacing=2;spacingTop=0;verticalAlign=middle;" vertex="1" parent="ApzVfPZ92ETSSqykohNE-8">
          <mxGeometry width="30" height="30" as="geometry">
            <mxRectangle width="30" height="30" as="alternateBounds" />
          </mxGeometry>
        </mxCell>
        <mxCell id="ApzVfPZ92ETSSqykohNE-10" value="matricule" style="shape=partialRectangle;connectable=0;fillColor=none;top=0;left=0;bottom=0;right=0;align=left;spacingLeft=6;overflow=hidden;whiteSpace=wrap;html=1;fontFamily=Fira Code;spacing=2;spacingTop=0;verticalAlign=middle;" vertex="1" parent="ApzVfPZ92ETSSqykohNE-8">
          <mxGeometry x="30" width="150" height="30" as="geometry">
            <mxRectangle width="150" height="30" as="alternateBounds" />
          </mxGeometry>
        </mxCell>
        <mxCell id="ApzVfPZ92ETSSqykohNE-11" value="" style="shape=tableRow;horizontal=0;startSize=0;swimlaneHead=0;swimlaneBody=0;fillColor=none;collapsible=0;dropTarget=0;points=[[0,0.5],[1,0.5]];portConstraint=eastwest;top=0;left=0;right=0;bottom=0;fontFamily=Fira Code;spacing=2;spacingTop=0;verticalAlign=middle;" vertex="1" parent="ApzVfPZ92ETSSqykohNE-1">
          <mxGeometry y="120" width="180" height="30" as="geometry" />
        </mxCell>
        <mxCell id="ApzVfPZ92ETSSqykohNE-12" value="" style="shape=partialRectangle;connectable=0;fillColor=none;top=0;left=0;bottom=0;right=0;editable=1;overflow=hidden;whiteSpace=wrap;html=1;fontFamily=Fira Code;spacing=2;spacingTop=0;verticalAlign=middle;" vertex="1" parent="ApzVfPZ92ETSSqykohNE-11">
          <mxGeometry width="30" height="30" as="geometry">
            <mxRectangle width="30" height="30" as="alternateBounds" />
          </mxGeometry>
        </mxCell>
        <mxCell id="ApzVfPZ92ETSSqykohNE-13" value="email" style="shape=partialRectangle;connectable=0;fillColor=none;top=0;left=0;bottom=0;right=0;align=left;spacingLeft=6;overflow=hidden;whiteSpace=wrap;html=1;fontFamily=Fira Code;spacing=2;spacingTop=0;verticalAlign=middle;" vertex="1" parent="ApzVfPZ92ETSSqykohNE-11">
          <mxGeometry x="30" width="150" height="30" as="geometry">
            <mxRectangle width="150" height="30" as="alternateBounds" />
          </mxGeometry>
        </mxCell>
        <mxCell id="ApzVfPZ92ETSSqykohNE-17" style="shape=tableRow;horizontal=0;startSize=0;swimlaneHead=0;swimlaneBody=0;fillColor=none;collapsible=0;dropTarget=0;points=[[0,0.5],[1,0.5]];portConstraint=eastwest;top=0;left=0;right=0;bottom=0;fontFamily=Fira Code;spacing=2;spacingTop=0;verticalAlign=middle;" vertex="1" parent="ApzVfPZ92ETSSqykohNE-1">
          <mxGeometry y="150" width="180" height="30" as="geometry" />
        </mxCell>
        <mxCell id="ApzVfPZ92ETSSqykohNE-18" value="" style="shape=partialRectangle;connectable=0;fillColor=none;top=0;left=0;bottom=0;right=0;editable=1;overflow=hidden;whiteSpace=wrap;html=1;fontFamily=Fira Code;spacing=2;spacingTop=0;verticalAlign=middle;" vertex="1" parent="ApzVfPZ92ETSSqykohNE-17">
          <mxGeometry width="30" height="30" as="geometry">
            <mxRectangle width="30" height="30" as="alternateBounds" />
          </mxGeometry>
        </mxCell>
        <mxCell id="ApzVfPZ92ETSSqykohNE-19" value="password" style="shape=partialRectangle;connectable=0;fillColor=none;top=0;left=0;bottom=0;right=0;align=left;spacingLeft=6;overflow=hidden;whiteSpace=wrap;html=1;fontFamily=Fira Code;spacing=2;spacingTop=0;verticalAlign=middle;" vertex="1" parent="ApzVfPZ92ETSSqykohNE-17">
          <mxGeometry x="30" width="150" height="30" as="geometry">
            <mxRectangle width="150" height="30" as="alternateBounds" />
          </mxGeometry>
        </mxCell>
        <mxCell id="ApzVfPZ92ETSSqykohNE-44" style="shape=tableRow;horizontal=0;startSize=0;swimlaneHead=0;swimlaneBody=0;fillColor=none;collapsible=0;dropTarget=0;points=[[0,0.5],[1,0.5]];portConstraint=eastwest;top=0;left=0;right=0;bottom=0;fontFamily=Fira Code;spacing=2;spacingTop=0;verticalAlign=middle;" vertex="1" parent="ApzVfPZ92ETSSqykohNE-1">
          <mxGeometry y="180" width="180" height="30" as="geometry" />
        </mxCell>
        <mxCell id="ApzVfPZ92ETSSqykohNE-45" style="shape=partialRectangle;connectable=0;fillColor=none;top=0;left=0;bottom=0;right=0;editable=1;overflow=hidden;whiteSpace=wrap;html=1;fontFamily=Fira Code;spacing=2;spacingTop=0;verticalAlign=middle;" vertex="1" parent="ApzVfPZ92ETSSqykohNE-44">
          <mxGeometry width="30" height="30" as="geometry">
            <mxRectangle width="30" height="30" as="alternateBounds" />
          </mxGeometry>
        </mxCell>
        <mxCell id="ApzVfPZ92ETSSqykohNE-46" value="firstName" style="shape=partialRectangle;connectable=0;fillColor=none;top=0;left=0;bottom=0;right=0;align=left;spacingLeft=6;overflow=hidden;whiteSpace=wrap;html=1;fontFamily=Fira Code;spacing=2;spacingTop=0;verticalAlign=middle;" vertex="1" parent="ApzVfPZ92ETSSqykohNE-44">
          <mxGeometry x="30" width="150" height="30" as="geometry">
            <mxRectangle width="150" height="30" as="alternateBounds" />
          </mxGeometry>
        </mxCell>
        <mxCell id="ApzVfPZ92ETSSqykohNE-41" style="shape=tableRow;horizontal=0;startSize=0;swimlaneHead=0;swimlaneBody=0;fillColor=none;collapsible=0;dropTarget=0;points=[[0,0.5],[1,0.5]];portConstraint=eastwest;top=0;left=0;right=0;bottom=0;fontFamily=Fira Code;spacing=2;spacingTop=0;verticalAlign=middle;" vertex="1" parent="ApzVfPZ92ETSSqykohNE-1">
          <mxGeometry y="210" width="180" height="30" as="geometry" />
        </mxCell>
        <mxCell id="ApzVfPZ92ETSSqykohNE-42" style="shape=partialRectangle;connectable=0;fillColor=none;top=0;left=0;bottom=0;right=0;editable=1;overflow=hidden;whiteSpace=wrap;html=1;fontFamily=Fira Code;spacing=2;spacingTop=0;verticalAlign=middle;" vertex="1" parent="ApzVfPZ92ETSSqykohNE-41">
          <mxGeometry width="30" height="30" as="geometry">
            <mxRectangle width="30" height="30" as="alternateBounds" />
          </mxGeometry>
        </mxCell>
        <mxCell id="ApzVfPZ92ETSSqykohNE-43" value="lastName" style="shape=partialRectangle;connectable=0;fillColor=none;top=0;left=0;bottom=0;right=0;align=left;spacingLeft=6;overflow=hidden;whiteSpace=wrap;html=1;fontFamily=Fira Code;spacing=2;spacingTop=0;verticalAlign=middle;" vertex="1" parent="ApzVfPZ92ETSSqykohNE-41">
          <mxGeometry x="30" width="150" height="30" as="geometry">
            <mxRectangle width="150" height="30" as="alternateBounds" />
          </mxGeometry>
        </mxCell>
        <mxCell id="ApzVfPZ92ETSSqykohNE-38" style="shape=tableRow;horizontal=0;startSize=0;swimlaneHead=0;swimlaneBody=0;fillColor=none;collapsible=0;dropTarget=0;points=[[0,0.5],[1,0.5]];portConstraint=eastwest;top=0;left=0;right=0;bottom=0;fontFamily=Fira Code;spacing=2;spacingTop=0;verticalAlign=middle;" vertex="1" parent="ApzVfPZ92ETSSqykohNE-1">
          <mxGeometry y="240" width="180" height="30" as="geometry" />
        </mxCell>
        <mxCell id="ApzVfPZ92ETSSqykohNE-39" style="shape=partialRectangle;connectable=0;fillColor=none;top=0;left=0;bottom=0;right=0;editable=1;overflow=hidden;whiteSpace=wrap;html=1;fontFamily=Fira Code;spacing=2;spacingTop=0;verticalAlign=middle;" vertex="1" parent="ApzVfPZ92ETSSqykohNE-38">
          <mxGeometry width="30" height="30" as="geometry">
            <mxRectangle width="30" height="30" as="alternateBounds" />
          </mxGeometry>
        </mxCell>
        <mxCell id="ApzVfPZ92ETSSqykohNE-40" value="dateOfBirth" style="shape=partialRectangle;connectable=0;fillColor=none;top=0;left=0;bottom=0;right=0;align=left;spacingLeft=6;overflow=hidden;whiteSpace=wrap;html=1;fontFamily=Fira Code;spacing=2;spacingTop=0;verticalAlign=middle;" vertex="1" parent="ApzVfPZ92ETSSqykohNE-38">
          <mxGeometry x="30" width="150" height="30" as="geometry">
            <mxRectangle width="150" height="30" as="alternateBounds" />
          </mxGeometry>
        </mxCell>
        <mxCell id="ApzVfPZ92ETSSqykohNE-35" style="shape=tableRow;horizontal=0;startSize=0;swimlaneHead=0;swimlaneBody=0;fillColor=none;collapsible=0;dropTarget=0;points=[[0,0.5],[1,0.5]];portConstraint=eastwest;top=0;left=0;right=0;bottom=0;fontFamily=Fira Code;spacing=2;spacingTop=0;verticalAlign=middle;" vertex="1" parent="ApzVfPZ92ETSSqykohNE-1">
          <mxGeometry y="270" width="180" height="30" as="geometry" />
        </mxCell>
        <mxCell id="ApzVfPZ92ETSSqykohNE-36" style="shape=partialRectangle;connectable=0;fillColor=none;top=0;left=0;bottom=0;right=0;editable=1;overflow=hidden;whiteSpace=wrap;html=1;fontFamily=Fira Code;spacing=2;spacingTop=0;verticalAlign=middle;" vertex="1" parent="ApzVfPZ92ETSSqykohNE-35">
          <mxGeometry width="30" height="30" as="geometry">
            <mxRectangle width="30" height="30" as="alternateBounds" />
          </mxGeometry>
        </mxCell>
        <mxCell id="ApzVfPZ92ETSSqykohNE-37" value="sex" style="shape=partialRectangle;connectable=0;fillColor=none;top=0;left=0;bottom=0;right=0;align=left;spacingLeft=6;overflow=hidden;whiteSpace=wrap;html=1;fontFamily=Fira Code;spacing=2;spacingTop=0;verticalAlign=middle;" vertex="1" parent="ApzVfPZ92ETSSqykohNE-35">
          <mxGeometry x="30" width="150" height="30" as="geometry">
            <mxRectangle width="150" height="30" as="alternateBounds" />
          </mxGeometry>
        </mxCell>
        <mxCell id="ApzVfPZ92ETSSqykohNE-32" style="shape=tableRow;horizontal=0;startSize=0;swimlaneHead=0;swimlaneBody=0;fillColor=none;collapsible=0;dropTarget=0;points=[[0,0.5],[1,0.5]];portConstraint=eastwest;top=0;left=0;right=0;bottom=0;fontFamily=Fira Code;spacing=2;spacingTop=0;verticalAlign=middle;" vertex="1" parent="ApzVfPZ92ETSSqykohNE-1">
          <mxGeometry y="300" width="180" height="30" as="geometry" />
        </mxCell>
        <mxCell id="ApzVfPZ92ETSSqykohNE-33" style="shape=partialRectangle;connectable=0;fillColor=none;top=0;left=0;bottom=0;right=0;editable=1;overflow=hidden;whiteSpace=wrap;html=1;fontFamily=Fira Code;spacing=2;spacingTop=0;verticalAlign=middle;" vertex="1" parent="ApzVfPZ92ETSSqykohNE-32">
          <mxGeometry width="30" height="30" as="geometry">
            <mxRectangle width="30" height="30" as="alternateBounds" />
          </mxGeometry>
        </mxCell>
        <mxCell id="ApzVfPZ92ETSSqykohNE-34" value="telephone" style="shape=partialRectangle;connectable=0;fillColor=none;top=0;left=0;bottom=0;right=0;align=left;spacingLeft=6;overflow=hidden;whiteSpace=wrap;html=1;fontFamily=Fira Code;spacing=2;spacingTop=0;verticalAlign=middle;" vertex="1" parent="ApzVfPZ92ETSSqykohNE-32">
          <mxGeometry x="30" width="150" height="30" as="geometry">
            <mxRectangle width="150" height="30" as="alternateBounds" />
          </mxGeometry>
        </mxCell>
        <mxCell id="ApzVfPZ92ETSSqykohNE-29" style="shape=tableRow;horizontal=0;startSize=0;swimlaneHead=0;swimlaneBody=0;fillColor=none;collapsible=0;dropTarget=0;points=[[0,0.5],[1,0.5]];portConstraint=eastwest;top=0;left=0;right=0;bottom=0;fontFamily=Fira Code;spacing=2;spacingTop=0;verticalAlign=middle;" vertex="1" parent="ApzVfPZ92ETSSqykohNE-1">
          <mxGeometry y="330" width="180" height="30" as="geometry" />
        </mxCell>
        <mxCell id="ApzVfPZ92ETSSqykohNE-30" style="shape=partialRectangle;connectable=0;fillColor=none;top=0;left=0;bottom=0;right=0;editable=1;overflow=hidden;whiteSpace=wrap;html=1;fontFamily=Fira Code;spacing=2;spacingTop=0;verticalAlign=middle;" vertex="1" parent="ApzVfPZ92ETSSqykohNE-29">
          <mxGeometry width="30" height="30" as="geometry">
            <mxRectangle width="30" height="30" as="alternateBounds" />
          </mxGeometry>
        </mxCell>
        <mxCell id="ApzVfPZ92ETSSqykohNE-31" value="emergencyContact" style="shape=partialRectangle;connectable=0;fillColor=none;top=0;left=0;bottom=0;right=0;align=left;spacingLeft=6;overflow=hidden;whiteSpace=wrap;html=1;fontFamily=Fira Code;spacing=2;spacingTop=0;verticalAlign=middle;" vertex="1" parent="ApzVfPZ92ETSSqykohNE-29">
          <mxGeometry x="30" width="150" height="30" as="geometry">
            <mxRectangle width="150" height="30" as="alternateBounds" />
          </mxGeometry>
        </mxCell>
        <mxCell id="ApzVfPZ92ETSSqykohNE-26" style="shape=tableRow;horizontal=0;startSize=0;swimlaneHead=0;swimlaneBody=0;fillColor=none;collapsible=0;dropTarget=0;points=[[0,0.5],[1,0.5]];portConstraint=eastwest;top=0;left=0;right=0;bottom=0;fontFamily=Fira Code;spacing=2;spacingTop=0;verticalAlign=middle;" vertex="1" parent="ApzVfPZ92ETSSqykohNE-1">
          <mxGeometry y="360" width="180" height="30" as="geometry" />
        </mxCell>
        <mxCell id="ApzVfPZ92ETSSqykohNE-27" style="shape=partialRectangle;connectable=0;fillColor=none;top=0;left=0;bottom=0;right=0;editable=1;overflow=hidden;whiteSpace=wrap;html=1;fontFamily=Fira Code;spacing=2;spacingTop=0;verticalAlign=middle;" vertex="1" parent="ApzVfPZ92ETSSqykohNE-26">
          <mxGeometry width="30" height="30" as="geometry">
            <mxRectangle width="30" height="30" as="alternateBounds" />
          </mxGeometry>
        </mxCell>
        <mxCell id="ApzVfPZ92ETSSqykohNE-28" value="height&amp;nbsp;" style="shape=partialRectangle;connectable=0;fillColor=none;top=0;left=0;bottom=0;right=0;align=left;spacingLeft=6;overflow=hidden;whiteSpace=wrap;html=1;fontFamily=Fira Code;spacing=2;spacingTop=0;verticalAlign=middle;" vertex="1" parent="ApzVfPZ92ETSSqykohNE-26">
          <mxGeometry x="30" width="150" height="30" as="geometry">
            <mxRectangle width="150" height="30" as="alternateBounds" />
          </mxGeometry>
        </mxCell>
        <mxCell id="ApzVfPZ92ETSSqykohNE-23" style="shape=tableRow;horizontal=0;startSize=0;swimlaneHead=0;swimlaneBody=0;fillColor=none;collapsible=0;dropTarget=0;points=[[0,0.5],[1,0.5]];portConstraint=eastwest;top=0;left=0;right=0;bottom=0;fontFamily=Fira Code;spacing=2;spacingTop=0;verticalAlign=middle;" vertex="1" parent="ApzVfPZ92ETSSqykohNE-1">
          <mxGeometry y="390" width="180" height="30" as="geometry" />
        </mxCell>
        <mxCell id="ApzVfPZ92ETSSqykohNE-24" style="shape=partialRectangle;connectable=0;fillColor=none;top=0;left=0;bottom=0;right=0;editable=1;overflow=hidden;whiteSpace=wrap;html=1;fontFamily=Fira Code;spacing=2;spacingTop=0;verticalAlign=middle;" vertex="1" parent="ApzVfPZ92ETSSqykohNE-23">
          <mxGeometry width="30" height="30" as="geometry">
            <mxRectangle width="30" height="30" as="alternateBounds" />
          </mxGeometry>
        </mxCell>
        <mxCell id="ApzVfPZ92ETSSqykohNE-25" value="pound" style="shape=partialRectangle;connectable=0;fillColor=none;top=0;left=0;bottom=0;right=0;align=left;spacingLeft=6;overflow=hidden;whiteSpace=wrap;html=1;fontFamily=Fira Code;spacing=2;spacingTop=0;verticalAlign=middle;" vertex="1" parent="ApzVfPZ92ETSSqykohNE-23">
          <mxGeometry x="30" width="150" height="30" as="geometry">
            <mxRectangle width="150" height="30" as="alternateBounds" />
          </mxGeometry>
        </mxCell>
        <mxCell id="ApzVfPZ92ETSSqykohNE-20" style="shape=tableRow;horizontal=0;startSize=0;swimlaneHead=0;swimlaneBody=0;fillColor=none;collapsible=0;dropTarget=0;points=[[0,0.5],[1,0.5]];portConstraint=eastwest;top=0;left=0;right=0;bottom=0;fontFamily=Fira Code;spacing=2;spacingTop=0;verticalAlign=middle;" vertex="1" parent="ApzVfPZ92ETSSqykohNE-1">
          <mxGeometry y="420" width="180" height="30" as="geometry" />
        </mxCell>
        <mxCell id="ApzVfPZ92ETSSqykohNE-21" style="shape=partialRectangle;connectable=0;fillColor=none;top=0;left=0;bottom=0;right=0;editable=1;overflow=hidden;whiteSpace=wrap;html=1;fontFamily=Fira Code;spacing=2;spacingTop=0;verticalAlign=middle;" vertex="1" parent="ApzVfPZ92ETSSqykohNE-20">
          <mxGeometry width="30" height="30" as="geometry">
            <mxRectangle width="30" height="30" as="alternateBounds" />
          </mxGeometry>
        </mxCell>
        <mxCell id="ApzVfPZ92ETSSqykohNE-22" value="bloodGroup" style="shape=partialRectangle;connectable=0;fillColor=none;top=0;left=0;bottom=0;right=0;align=left;spacingLeft=6;overflow=hidden;whiteSpace=wrap;html=1;fontFamily=Fira Code;spacing=2;spacingTop=0;verticalAlign=middle;" vertex="1" parent="ApzVfPZ92ETSSqykohNE-20">
          <mxGeometry x="30" width="150" height="30" as="geometry">
            <mxRectangle width="150" height="30" as="alternateBounds" />
          </mxGeometry>
        </mxCell>
        <mxCell id="ApzVfPZ92ETSSqykohNE-94" value="&lt;font face=&quot;Fira Code&quot;&gt;APPOINTMENTS SERVICE&lt;/font&gt;" style="swimlane;whiteSpace=wrap;html=1;fillColor=#DADADA;" vertex="1" parent="1">
          <mxGeometry x="560" y="430" width="260" height="340" as="geometry" />
        </mxCell>
        <mxCell id="ApzVfPZ92ETSSqykohNE-141" value="&lt;font face=&quot;Fira Code&quot;&gt;&lt;b&gt;Appointments&lt;/b&gt;&lt;/font&gt;" style="shape=table;startSize=30;container=1;collapsible=1;childLayout=tableLayout;fixedRows=1;rowLines=0;align=center;resizeLast=1;html=1;spacing=2;spacingTop=0;verticalAlign=middle;" vertex="1" parent="ApzVfPZ92ETSSqykohNE-94">
          <mxGeometry x="40" y="60" width="180" height="240" as="geometry">
            <mxRectangle x="80" y="80" width="70" height="30" as="alternateBounds" />
          </mxGeometry>
        </mxCell>
        <mxCell id="ApzVfPZ92ETSSqykohNE-142" value="" style="shape=tableRow;horizontal=0;startSize=0;swimlaneHead=0;swimlaneBody=0;fillColor=none;collapsible=0;dropTarget=0;points=[[0,0.5],[1,0.5]];portConstraint=eastwest;top=0;left=0;right=0;bottom=1;fontFamily=Fira Code;spacing=2;spacingTop=0;verticalAlign=middle;" vertex="1" parent="ApzVfPZ92ETSSqykohNE-141">
          <mxGeometry y="30" width="180" height="30" as="geometry" />
        </mxCell>
        <mxCell id="ApzVfPZ92ETSSqykohNE-143" value="PK" style="shape=partialRectangle;connectable=0;fillColor=none;top=0;left=0;bottom=0;right=0;fontStyle=1;overflow=hidden;whiteSpace=wrap;html=1;fontFamily=Fira Code;spacing=2;spacingTop=0;verticalAlign=middle;" vertex="1" parent="ApzVfPZ92ETSSqykohNE-142">
          <mxGeometry width="30" height="30" as="geometry">
            <mxRectangle width="30" height="30" as="alternateBounds" />
          </mxGeometry>
        </mxCell>
        <mxCell id="ApzVfPZ92ETSSqykohNE-144" value="id" style="shape=partialRectangle;connectable=0;fillColor=none;top=0;left=0;bottom=0;right=0;align=left;spacingLeft=6;fontStyle=5;overflow=hidden;whiteSpace=wrap;html=1;fontFamily=Fira Code;spacing=2;spacingTop=0;verticalAlign=middle;" vertex="1" parent="ApzVfPZ92ETSSqykohNE-142">
          <mxGeometry x="30" width="150" height="30" as="geometry">
            <mxRectangle width="150" height="30" as="alternateBounds" />
          </mxGeometry>
        </mxCell>
        <mxCell id="ApzVfPZ92ETSSqykohNE-145" value="" style="shape=tableRow;horizontal=0;startSize=0;swimlaneHead=0;swimlaneBody=0;fillColor=none;collapsible=0;dropTarget=0;points=[[0,0.5],[1,0.5]];portConstraint=eastwest;top=0;left=0;right=0;bottom=0;fontFamily=Fira Code;spacing=2;spacingTop=0;verticalAlign=middle;" vertex="1" parent="ApzVfPZ92ETSSqykohNE-141">
          <mxGeometry y="60" width="180" height="30" as="geometry" />
        </mxCell>
        <mxCell id="ApzVfPZ92ETSSqykohNE-146" value="FK" style="shape=partialRectangle;connectable=0;fillColor=none;top=0;left=0;bottom=0;right=0;editable=1;overflow=hidden;whiteSpace=wrap;html=1;fontFamily=Fira Code;spacing=2;spacingTop=0;verticalAlign=middle;" vertex="1" parent="ApzVfPZ92ETSSqykohNE-145">
          <mxGeometry width="30" height="30" as="geometry">
            <mxRectangle width="30" height="30" as="alternateBounds" />
          </mxGeometry>
        </mxCell>
        <mxCell id="ApzVfPZ92ETSSqykohNE-147" value="doctorId" style="shape=partialRectangle;connectable=0;fillColor=none;top=0;left=0;bottom=0;right=0;align=left;spacingLeft=6;overflow=hidden;whiteSpace=wrap;html=1;fontFamily=Fira Code;spacing=2;spacingTop=0;verticalAlign=middle;" vertex="1" parent="ApzVfPZ92ETSSqykohNE-145">
          <mxGeometry x="30" width="150" height="30" as="geometry">
            <mxRectangle width="150" height="30" as="alternateBounds" />
          </mxGeometry>
        </mxCell>
        <mxCell id="ApzVfPZ92ETSSqykohNE-148" value="" style="shape=tableRow;horizontal=0;startSize=0;swimlaneHead=0;swimlaneBody=0;fillColor=none;collapsible=0;dropTarget=0;points=[[0,0.5],[1,0.5]];portConstraint=eastwest;top=0;left=0;right=0;bottom=0;fontFamily=Fira Code;spacing=2;spacingTop=0;verticalAlign=middle;" vertex="1" parent="ApzVfPZ92ETSSqykohNE-141">
          <mxGeometry y="90" width="180" height="30" as="geometry" />
        </mxCell>
        <mxCell id="ApzVfPZ92ETSSqykohNE-149" value="FK" style="shape=partialRectangle;connectable=0;fillColor=none;top=0;left=0;bottom=0;right=0;editable=1;overflow=hidden;whiteSpace=wrap;html=1;fontFamily=Fira Code;spacing=2;spacingTop=0;verticalAlign=middle;" vertex="1" parent="ApzVfPZ92ETSSqykohNE-148">
          <mxGeometry width="30" height="30" as="geometry">
            <mxRectangle width="30" height="30" as="alternateBounds" />
          </mxGeometry>
        </mxCell>
        <mxCell id="ApzVfPZ92ETSSqykohNE-150" value="patientId" style="shape=partialRectangle;connectable=0;fillColor=none;top=0;left=0;bottom=0;right=0;align=left;spacingLeft=6;overflow=hidden;whiteSpace=wrap;html=1;fontFamily=Fira Code;spacing=2;spacingTop=0;verticalAlign=middle;" vertex="1" parent="ApzVfPZ92ETSSqykohNE-148">
          <mxGeometry x="30" width="150" height="30" as="geometry">
            <mxRectangle width="150" height="30" as="alternateBounds" />
          </mxGeometry>
        </mxCell>
        <mxCell id="ApzVfPZ92ETSSqykohNE-151" value="" style="shape=tableRow;horizontal=0;startSize=0;swimlaneHead=0;swimlaneBody=0;fillColor=none;collapsible=0;dropTarget=0;points=[[0,0.5],[1,0.5]];portConstraint=eastwest;top=0;left=0;right=0;bottom=0;fontFamily=Fira Code;spacing=2;spacingTop=0;verticalAlign=middle;" vertex="1" parent="ApzVfPZ92ETSSqykohNE-141">
          <mxGeometry y="120" width="180" height="30" as="geometry" />
        </mxCell>
        <mxCell id="ApzVfPZ92ETSSqykohNE-152" value="" style="shape=partialRectangle;connectable=0;fillColor=none;top=0;left=0;bottom=0;right=0;editable=1;overflow=hidden;whiteSpace=wrap;html=1;fontFamily=Fira Code;spacing=2;spacingTop=0;verticalAlign=middle;" vertex="1" parent="ApzVfPZ92ETSSqykohNE-151">
          <mxGeometry width="30" height="30" as="geometry">
            <mxRectangle width="30" height="30" as="alternateBounds" />
          </mxGeometry>
        </mxCell>
        <mxCell id="ApzVfPZ92ETSSqykohNE-153" value="reason" style="shape=partialRectangle;connectable=0;fillColor=none;top=0;left=0;bottom=0;right=0;align=left;spacingLeft=6;overflow=hidden;whiteSpace=wrap;html=1;fontFamily=Fira Code;spacing=2;spacingTop=0;verticalAlign=middle;" vertex="1" parent="ApzVfPZ92ETSSqykohNE-151">
          <mxGeometry x="30" width="150" height="30" as="geometry">
            <mxRectangle width="150" height="30" as="alternateBounds" />
          </mxGeometry>
        </mxCell>
        <mxCell id="ApzVfPZ92ETSSqykohNE-154" style="shape=tableRow;horizontal=0;startSize=0;swimlaneHead=0;swimlaneBody=0;fillColor=none;collapsible=0;dropTarget=0;points=[[0,0.5],[1,0.5]];portConstraint=eastwest;top=0;left=0;right=0;bottom=0;fontFamily=Fira Code;spacing=2;spacingTop=0;verticalAlign=middle;" vertex="1" parent="ApzVfPZ92ETSSqykohNE-141">
          <mxGeometry y="150" width="180" height="30" as="geometry" />
        </mxCell>
        <mxCell id="ApzVfPZ92ETSSqykohNE-155" value="" style="shape=partialRectangle;connectable=0;fillColor=none;top=0;left=0;bottom=0;right=0;editable=1;overflow=hidden;whiteSpace=wrap;html=1;fontFamily=Fira Code;spacing=2;spacingTop=0;verticalAlign=middle;" vertex="1" parent="ApzVfPZ92ETSSqykohNE-154">
          <mxGeometry width="30" height="30" as="geometry">
            <mxRectangle width="30" height="30" as="alternateBounds" />
          </mxGeometry>
        </mxCell>
        <mxCell id="ApzVfPZ92ETSSqykohNE-156" value="reason" style="shape=partialRectangle;connectable=0;fillColor=none;top=0;left=0;bottom=0;right=0;align=left;spacingLeft=6;overflow=hidden;whiteSpace=wrap;html=1;fontFamily=Fira Code;spacing=2;spacingTop=0;verticalAlign=middle;" vertex="1" parent="ApzVfPZ92ETSSqykohNE-154">
          <mxGeometry x="30" width="150" height="30" as="geometry">
            <mxRectangle width="150" height="30" as="alternateBounds" />
          </mxGeometry>
        </mxCell>
        <mxCell id="ApzVfPZ92ETSSqykohNE-157" style="shape=tableRow;horizontal=0;startSize=0;swimlaneHead=0;swimlaneBody=0;fillColor=none;collapsible=0;dropTarget=0;points=[[0,0.5],[1,0.5]];portConstraint=eastwest;top=0;left=0;right=0;bottom=0;fontFamily=Fira Code;spacing=2;spacingTop=0;verticalAlign=middle;" vertex="1" parent="ApzVfPZ92ETSSqykohNE-141">
          <mxGeometry y="180" width="180" height="30" as="geometry" />
        </mxCell>
        <mxCell id="ApzVfPZ92ETSSqykohNE-158" style="shape=partialRectangle;connectable=0;fillColor=none;top=0;left=0;bottom=0;right=0;editable=1;overflow=hidden;whiteSpace=wrap;html=1;fontFamily=Fira Code;spacing=2;spacingTop=0;verticalAlign=middle;" vertex="1" parent="ApzVfPZ92ETSSqykohNE-157">
          <mxGeometry width="30" height="30" as="geometry">
            <mxRectangle width="30" height="30" as="alternateBounds" />
          </mxGeometry>
        </mxCell>
        <mxCell id="ApzVfPZ92ETSSqykohNE-159" value="createdAt" style="shape=partialRectangle;connectable=0;fillColor=none;top=0;left=0;bottom=0;right=0;align=left;spacingLeft=6;overflow=hidden;whiteSpace=wrap;html=1;fontFamily=Fira Code;spacing=2;spacingTop=0;verticalAlign=middle;" vertex="1" parent="ApzVfPZ92ETSSqykohNE-157">
          <mxGeometry x="30" width="150" height="30" as="geometry">
            <mxRectangle width="150" height="30" as="alternateBounds" />
          </mxGeometry>
        </mxCell>
        <mxCell id="ApzVfPZ92ETSSqykohNE-160" style="shape=tableRow;horizontal=0;startSize=0;swimlaneHead=0;swimlaneBody=0;fillColor=none;collapsible=0;dropTarget=0;points=[[0,0.5],[1,0.5]];portConstraint=eastwest;top=0;left=0;right=0;bottom=0;fontFamily=Fira Code;spacing=2;spacingTop=0;verticalAlign=middle;" vertex="1" parent="ApzVfPZ92ETSSqykohNE-141">
          <mxGeometry y="210" width="180" height="30" as="geometry" />
        </mxCell>
        <mxCell id="ApzVfPZ92ETSSqykohNE-161" style="shape=partialRectangle;connectable=0;fillColor=none;top=0;left=0;bottom=0;right=0;editable=1;overflow=hidden;whiteSpace=wrap;html=1;fontFamily=Fira Code;spacing=2;spacingTop=0;verticalAlign=middle;" vertex="1" parent="ApzVfPZ92ETSSqykohNE-160">
          <mxGeometry width="30" height="30" as="geometry">
            <mxRectangle width="30" height="30" as="alternateBounds" />
          </mxGeometry>
        </mxCell>
        <mxCell id="ApzVfPZ92ETSSqykohNE-162" value="updatedAt" style="shape=partialRectangle;connectable=0;fillColor=none;top=0;left=0;bottom=0;right=0;align=left;spacingLeft=6;overflow=hidden;whiteSpace=wrap;html=1;fontFamily=Fira Code;spacing=2;spacingTop=0;verticalAlign=middle;" vertex="1" parent="ApzVfPZ92ETSSqykohNE-160">
          <mxGeometry x="30" width="150" height="30" as="geometry">
            <mxRectangle width="150" height="30" as="alternateBounds" />
          </mxGeometry>
        </mxCell>
        <mxCell id="ApzVfPZ92ETSSqykohNE-184" value="&lt;font face=&quot;Fira Code&quot;&gt;PRESCRIPTION SERVICE&lt;/font&gt;" style="swimlane;whiteSpace=wrap;html=1;fillColor=#DADADA;" vertex="1" parent="1">
          <mxGeometry x="560" y="40" width="560" height="350" as="geometry" />
        </mxCell>
        <mxCell id="ApzVfPZ92ETSSqykohNE-185" value="&lt;font face=&quot;Fira Code&quot;&gt;&lt;b&gt;DrugsDosage&lt;/b&gt;&lt;/font&gt;" style="shape=table;startSize=30;container=1;collapsible=1;childLayout=tableLayout;fixedRows=1;rowLines=0;align=center;resizeLast=1;html=1;spacing=2;spacingTop=0;verticalAlign=middle;" vertex="1" parent="ApzVfPZ92ETSSqykohNE-184">
          <mxGeometry x="300" y="60" width="180" height="120" as="geometry">
            <mxRectangle x="80" y="80" width="70" height="30" as="alternateBounds" />
          </mxGeometry>
        </mxCell>
        <mxCell id="ApzVfPZ92ETSSqykohNE-186" value="" style="shape=tableRow;horizontal=0;startSize=0;swimlaneHead=0;swimlaneBody=0;fillColor=none;collapsible=0;dropTarget=0;points=[[0,0.5],[1,0.5]];portConstraint=eastwest;top=0;left=0;right=0;bottom=1;fontFamily=Fira Code;spacing=2;spacingTop=0;verticalAlign=middle;" vertex="1" parent="ApzVfPZ92ETSSqykohNE-185">
          <mxGeometry y="30" width="180" height="30" as="geometry" />
        </mxCell>
        <mxCell id="ApzVfPZ92ETSSqykohNE-187" value="PK" style="shape=partialRectangle;connectable=0;fillColor=none;top=0;left=0;bottom=0;right=0;fontStyle=1;overflow=hidden;whiteSpace=wrap;html=1;fontFamily=Fira Code;spacing=2;spacingTop=0;verticalAlign=middle;" vertex="1" parent="ApzVfPZ92ETSSqykohNE-186">
          <mxGeometry width="30" height="30" as="geometry">
            <mxRectangle width="30" height="30" as="alternateBounds" />
          </mxGeometry>
        </mxCell>
        <mxCell id="ApzVfPZ92ETSSqykohNE-188" value="id" style="shape=partialRectangle;connectable=0;fillColor=none;top=0;left=0;bottom=0;right=0;align=left;spacingLeft=6;fontStyle=5;overflow=hidden;whiteSpace=wrap;html=1;fontFamily=Fira Code;spacing=2;spacingTop=0;verticalAlign=middle;" vertex="1" parent="ApzVfPZ92ETSSqykohNE-186">
          <mxGeometry x="30" width="150" height="30" as="geometry">
            <mxRectangle width="150" height="30" as="alternateBounds" />
          </mxGeometry>
        </mxCell>
        <mxCell id="ApzVfPZ92ETSSqykohNE-189" value="" style="shape=tableRow;horizontal=0;startSize=0;swimlaneHead=0;swimlaneBody=0;fillColor=none;collapsible=0;dropTarget=0;points=[[0,0.5],[1,0.5]];portConstraint=eastwest;top=0;left=0;right=0;bottom=0;fontFamily=Fira Code;spacing=2;spacingTop=0;verticalAlign=middle;" vertex="1" parent="ApzVfPZ92ETSSqykohNE-185">
          <mxGeometry y="60" width="180" height="30" as="geometry" />
        </mxCell>
        <mxCell id="ApzVfPZ92ETSSqykohNE-190" value="FK" style="shape=partialRectangle;connectable=0;fillColor=none;top=0;left=0;bottom=0;right=0;editable=1;overflow=hidden;whiteSpace=wrap;html=1;fontFamily=Fira Code;spacing=2;spacingTop=0;verticalAlign=middle;" vertex="1" parent="ApzVfPZ92ETSSqykohNE-189">
          <mxGeometry width="30" height="30" as="geometry">
            <mxRectangle width="30" height="30" as="alternateBounds" />
          </mxGeometry>
        </mxCell>
        <mxCell id="ApzVfPZ92ETSSqykohNE-191" value="drugId" style="shape=partialRectangle;connectable=0;fillColor=none;top=0;left=0;bottom=0;right=0;align=left;spacingLeft=6;overflow=hidden;whiteSpace=wrap;html=1;fontFamily=Fira Code;spacing=2;spacingTop=0;verticalAlign=middle;" vertex="1" parent="ApzVfPZ92ETSSqykohNE-189">
          <mxGeometry x="30" width="150" height="30" as="geometry">
            <mxRectangle width="150" height="30" as="alternateBounds" />
          </mxGeometry>
        </mxCell>
        <mxCell id="ApzVfPZ92ETSSqykohNE-192" value="" style="shape=tableRow;horizontal=0;startSize=0;swimlaneHead=0;swimlaneBody=0;fillColor=none;collapsible=0;dropTarget=0;points=[[0,0.5],[1,0.5]];portConstraint=eastwest;top=0;left=0;right=0;bottom=0;fontFamily=Fira Code;spacing=2;spacingTop=0;verticalAlign=middle;" vertex="1" parent="ApzVfPZ92ETSSqykohNE-185">
          <mxGeometry y="90" width="180" height="30" as="geometry" />
        </mxCell>
        <mxCell id="ApzVfPZ92ETSSqykohNE-193" value="" style="shape=partialRectangle;connectable=0;fillColor=none;top=0;left=0;bottom=0;right=0;editable=1;overflow=hidden;whiteSpace=wrap;html=1;fontFamily=Fira Code;spacing=2;spacingTop=0;verticalAlign=middle;" vertex="1" parent="ApzVfPZ92ETSSqykohNE-192">
          <mxGeometry width="30" height="30" as="geometry">
            <mxRectangle width="30" height="30" as="alternateBounds" />
          </mxGeometry>
        </mxCell>
        <mxCell id="ApzVfPZ92ETSSqykohNE-194" value="frequency" style="shape=partialRectangle;connectable=0;fillColor=none;top=0;left=0;bottom=0;right=0;align=left;spacingLeft=6;overflow=hidden;whiteSpace=wrap;html=1;fontFamily=Fira Code;spacing=2;spacingTop=0;verticalAlign=middle;" vertex="1" parent="ApzVfPZ92ETSSqykohNE-192">
          <mxGeometry x="30" width="150" height="30" as="geometry">
            <mxRectangle width="150" height="30" as="alternateBounds" />
          </mxGeometry>
        </mxCell>
        <mxCell id="ApzVfPZ92ETSSqykohNE-231" value="&lt;font face=&quot;Fira Code&quot;&gt;&lt;b&gt;Prescriptions&lt;/b&gt;&lt;/font&gt;" style="shape=table;startSize=30;container=1;collapsible=1;childLayout=tableLayout;fixedRows=1;rowLines=0;align=center;resizeLast=1;html=1;spacing=2;spacingTop=0;verticalAlign=middle;" vertex="1" parent="ApzVfPZ92ETSSqykohNE-184">
          <mxGeometry x="40" y="60" width="180" height="210" as="geometry">
            <mxRectangle x="80" y="80" width="70" height="30" as="alternateBounds" />
          </mxGeometry>
        </mxCell>
        <mxCell id="ApzVfPZ92ETSSqykohNE-232" value="" style="shape=tableRow;horizontal=0;startSize=0;swimlaneHead=0;swimlaneBody=0;fillColor=none;collapsible=0;dropTarget=0;points=[[0,0.5],[1,0.5]];portConstraint=eastwest;top=0;left=0;right=0;bottom=1;fontFamily=Fira Code;spacing=2;spacingTop=0;verticalAlign=middle;" vertex="1" parent="ApzVfPZ92ETSSqykohNE-231">
          <mxGeometry y="30" width="180" height="30" as="geometry" />
        </mxCell>
        <mxCell id="ApzVfPZ92ETSSqykohNE-233" value="PK" style="shape=partialRectangle;connectable=0;fillColor=none;top=0;left=0;bottom=0;right=0;fontStyle=1;overflow=hidden;whiteSpace=wrap;html=1;fontFamily=Fira Code;spacing=2;spacingTop=0;verticalAlign=middle;" vertex="1" parent="ApzVfPZ92ETSSqykohNE-232">
          <mxGeometry width="30" height="30" as="geometry">
            <mxRectangle width="30" height="30" as="alternateBounds" />
          </mxGeometry>
        </mxCell>
        <mxCell id="ApzVfPZ92ETSSqykohNE-234" value="id" style="shape=partialRectangle;connectable=0;fillColor=none;top=0;left=0;bottom=0;right=0;align=left;spacingLeft=6;fontStyle=5;overflow=hidden;whiteSpace=wrap;html=1;fontFamily=Fira Code;spacing=2;spacingTop=0;verticalAlign=middle;" vertex="1" parent="ApzVfPZ92ETSSqykohNE-232">
          <mxGeometry x="30" width="150" height="30" as="geometry">
            <mxRectangle width="150" height="30" as="alternateBounds" />
          </mxGeometry>
        </mxCell>
        <mxCell id="ApzVfPZ92ETSSqykohNE-235" value="" style="shape=tableRow;horizontal=0;startSize=0;swimlaneHead=0;swimlaneBody=0;fillColor=none;collapsible=0;dropTarget=0;points=[[0,0.5],[1,0.5]];portConstraint=eastwest;top=0;left=0;right=0;bottom=0;fontFamily=Fira Code;spacing=2;spacingTop=0;verticalAlign=middle;" vertex="1" parent="ApzVfPZ92ETSSqykohNE-231">
          <mxGeometry y="60" width="180" height="30" as="geometry" />
        </mxCell>
        <mxCell id="ApzVfPZ92ETSSqykohNE-236" value="FK" style="shape=partialRectangle;connectable=0;fillColor=none;top=0;left=0;bottom=0;right=0;editable=1;overflow=hidden;whiteSpace=wrap;html=1;fontFamily=Fira Code;spacing=2;spacingTop=0;verticalAlign=middle;" vertex="1" parent="ApzVfPZ92ETSSqykohNE-235">
          <mxGeometry width="30" height="30" as="geometry">
            <mxRectangle width="30" height="30" as="alternateBounds" />
          </mxGeometry>
        </mxCell>
        <mxCell id="ApzVfPZ92ETSSqykohNE-237" value="doctorId" style="shape=partialRectangle;connectable=0;fillColor=none;top=0;left=0;bottom=0;right=0;align=left;spacingLeft=6;overflow=hidden;whiteSpace=wrap;html=1;fontFamily=Fira Code;spacing=2;spacingTop=0;verticalAlign=middle;" vertex="1" parent="ApzVfPZ92ETSSqykohNE-235">
          <mxGeometry x="30" width="150" height="30" as="geometry">
            <mxRectangle width="150" height="30" as="alternateBounds" />
          </mxGeometry>
        </mxCell>
        <mxCell id="ApzVfPZ92ETSSqykohNE-238" value="" style="shape=tableRow;horizontal=0;startSize=0;swimlaneHead=0;swimlaneBody=0;fillColor=none;collapsible=0;dropTarget=0;points=[[0,0.5],[1,0.5]];portConstraint=eastwest;top=0;left=0;right=0;bottom=0;fontFamily=Fira Code;spacing=2;spacingTop=0;verticalAlign=middle;" vertex="1" parent="ApzVfPZ92ETSSqykohNE-231">
          <mxGeometry y="90" width="180" height="30" as="geometry" />
        </mxCell>
        <mxCell id="ApzVfPZ92ETSSqykohNE-239" value="FK" style="shape=partialRectangle;connectable=0;fillColor=none;top=0;left=0;bottom=0;right=0;editable=1;overflow=hidden;whiteSpace=wrap;html=1;fontFamily=Fira Code;spacing=2;spacingTop=0;verticalAlign=middle;" vertex="1" parent="ApzVfPZ92ETSSqykohNE-238">
          <mxGeometry width="30" height="30" as="geometry">
            <mxRectangle width="30" height="30" as="alternateBounds" />
          </mxGeometry>
        </mxCell>
        <mxCell id="ApzVfPZ92ETSSqykohNE-240" value="patientId" style="shape=partialRectangle;connectable=0;fillColor=none;top=0;left=0;bottom=0;right=0;align=left;spacingLeft=6;overflow=hidden;whiteSpace=wrap;html=1;fontFamily=Fira Code;spacing=2;spacingTop=0;verticalAlign=middle;" vertex="1" parent="ApzVfPZ92ETSSqykohNE-238">
          <mxGeometry x="30" width="150" height="30" as="geometry">
            <mxRectangle width="150" height="30" as="alternateBounds" />
          </mxGeometry>
        </mxCell>
        <mxCell id="ApzVfPZ92ETSSqykohNE-241" value="" style="shape=tableRow;horizontal=0;startSize=0;swimlaneHead=0;swimlaneBody=0;fillColor=none;collapsible=0;dropTarget=0;points=[[0,0.5],[1,0.5]];portConstraint=eastwest;top=0;left=0;right=0;bottom=0;fontFamily=Fira Code;spacing=2;spacingTop=0;verticalAlign=middle;" vertex="1" parent="ApzVfPZ92ETSSqykohNE-231">
          <mxGeometry y="120" width="180" height="30" as="geometry" />
        </mxCell>
        <mxCell id="ApzVfPZ92ETSSqykohNE-242" value="" style="shape=partialRectangle;connectable=0;fillColor=none;top=0;left=0;bottom=0;right=0;editable=1;overflow=hidden;whiteSpace=wrap;html=1;fontFamily=Fira Code;spacing=2;spacingTop=0;verticalAlign=middle;" vertex="1" parent="ApzVfPZ92ETSSqykohNE-241">
          <mxGeometry width="30" height="30" as="geometry">
            <mxRectangle width="30" height="30" as="alternateBounds" />
          </mxGeometry>
        </mxCell>
        <mxCell id="ApzVfPZ92ETSSqykohNE-243" value="drugsDosage[]" style="shape=partialRectangle;connectable=0;fillColor=none;top=0;left=0;bottom=0;right=0;align=left;spacingLeft=6;overflow=hidden;whiteSpace=wrap;html=1;fontFamily=Fira Code;spacing=2;spacingTop=0;verticalAlign=middle;" vertex="1" parent="ApzVfPZ92ETSSqykohNE-241">
          <mxGeometry x="30" width="150" height="30" as="geometry">
            <mxRectangle width="150" height="30" as="alternateBounds" />
          </mxGeometry>
        </mxCell>
        <mxCell id="ApzVfPZ92ETSSqykohNE-244" style="shape=tableRow;horizontal=0;startSize=0;swimlaneHead=0;swimlaneBody=0;fillColor=none;collapsible=0;dropTarget=0;points=[[0,0.5],[1,0.5]];portConstraint=eastwest;top=0;left=0;right=0;bottom=0;fontFamily=Fira Code;spacing=2;spacingTop=0;verticalAlign=middle;" vertex="1" parent="ApzVfPZ92ETSSqykohNE-231">
          <mxGeometry y="150" width="180" height="30" as="geometry" />
        </mxCell>
        <mxCell id="ApzVfPZ92ETSSqykohNE-245" value="" style="shape=partialRectangle;connectable=0;fillColor=none;top=0;left=0;bottom=0;right=0;editable=1;overflow=hidden;whiteSpace=wrap;html=1;fontFamily=Fira Code;spacing=2;spacingTop=0;verticalAlign=middle;" vertex="1" parent="ApzVfPZ92ETSSqykohNE-244">
          <mxGeometry width="30" height="30" as="geometry">
            <mxRectangle width="30" height="30" as="alternateBounds" />
          </mxGeometry>
        </mxCell>
        <mxCell id="ApzVfPZ92ETSSqykohNE-246" value="recordUrl" style="shape=partialRectangle;connectable=0;fillColor=none;top=0;left=0;bottom=0;right=0;align=left;spacingLeft=6;overflow=hidden;whiteSpace=wrap;html=1;fontFamily=Fira Code;spacing=2;spacingTop=0;verticalAlign=middle;" vertex="1" parent="ApzVfPZ92ETSSqykohNE-244">
          <mxGeometry x="30" width="150" height="30" as="geometry">
            <mxRectangle width="150" height="30" as="alternateBounds" />
          </mxGeometry>
        </mxCell>
        <mxCell id="ApzVfPZ92ETSSqykohNE-247" style="shape=tableRow;horizontal=0;startSize=0;swimlaneHead=0;swimlaneBody=0;fillColor=none;collapsible=0;dropTarget=0;points=[[0,0.5],[1,0.5]];portConstraint=eastwest;top=0;left=0;right=0;bottom=0;fontFamily=Fira Code;spacing=2;spacingTop=0;verticalAlign=middle;" vertex="1" parent="ApzVfPZ92ETSSqykohNE-231">
          <mxGeometry y="180" width="180" height="30" as="geometry" />
        </mxCell>
        <mxCell id="ApzVfPZ92ETSSqykohNE-248" style="shape=partialRectangle;connectable=0;fillColor=none;top=0;left=0;bottom=0;right=0;editable=1;overflow=hidden;whiteSpace=wrap;html=1;fontFamily=Fira Code;spacing=2;spacingTop=0;verticalAlign=middle;" vertex="1" parent="ApzVfPZ92ETSSqykohNE-247">
          <mxGeometry width="30" height="30" as="geometry">
            <mxRectangle width="30" height="30" as="alternateBounds" />
          </mxGeometry>
        </mxCell>
        <mxCell id="ApzVfPZ92ETSSqykohNE-249" value="createdAt" style="shape=partialRectangle;connectable=0;fillColor=none;top=0;left=0;bottom=0;right=0;align=left;spacingLeft=6;overflow=hidden;whiteSpace=wrap;html=1;fontFamily=Fira Code;spacing=2;spacingTop=0;verticalAlign=middle;" vertex="1" parent="ApzVfPZ92ETSSqykohNE-247">
          <mxGeometry x="30" width="150" height="30" as="geometry">
            <mxRectangle width="150" height="30" as="alternateBounds" />
          </mxGeometry>
        </mxCell>
        <mxCell id="ApzVfPZ92ETSSqykohNE-277" value="" style="edgeStyle=entityRelationEdgeStyle;fontSize=12;html=1;endArrow=ERoneToMany;rounded=0;exitX=1;exitY=0.5;exitDx=0;exitDy=0;entryX=-0.006;entryY=0.125;entryDx=0;entryDy=0;entryPerimeter=0;" edge="1" parent="ApzVfPZ92ETSSqykohNE-184" source="ApzVfPZ92ETSSqykohNE-241" target="ApzVfPZ92ETSSqykohNE-185">
          <mxGeometry width="100" height="100" relative="1" as="geometry">
            <mxPoint x="310" y="70" as="sourcePoint" />
            <mxPoint x="410" y="-30" as="targetPoint" />
          </mxGeometry>
        </mxCell>
        <mxCell id="ApzVfPZ92ETSSqykohNE-278" value="&lt;font face=&quot;Fira Code&quot;&gt;&lt;b&gt;Drugs&lt;/b&gt;&lt;/font&gt;" style="shape=table;startSize=30;container=1;collapsible=1;childLayout=tableLayout;fixedRows=1;rowLines=0;align=center;resizeLast=1;html=1;spacing=2;spacingTop=0;verticalAlign=middle;" vertex="1" parent="1">
          <mxGeometry x="900" y="260" width="180" height="90" as="geometry">
            <mxRectangle x="80" y="80" width="70" height="30" as="alternateBounds" />
          </mxGeometry>
        </mxCell>
        <mxCell id="ApzVfPZ92ETSSqykohNE-279" value="" style="shape=tableRow;horizontal=0;startSize=0;swimlaneHead=0;swimlaneBody=0;fillColor=none;collapsible=0;dropTarget=0;points=[[0,0.5],[1,0.5]];portConstraint=eastwest;top=0;left=0;right=0;bottom=1;fontFamily=Fira Code;spacing=2;spacingTop=0;verticalAlign=middle;" vertex="1" parent="ApzVfPZ92ETSSqykohNE-278">
          <mxGeometry y="30" width="180" height="30" as="geometry" />
        </mxCell>
        <mxCell id="ApzVfPZ92ETSSqykohNE-280" value="PK" style="shape=partialRectangle;connectable=0;fillColor=none;top=0;left=0;bottom=0;right=0;fontStyle=1;overflow=hidden;whiteSpace=wrap;html=1;fontFamily=Fira Code;spacing=2;spacingTop=0;verticalAlign=middle;" vertex="1" parent="ApzVfPZ92ETSSqykohNE-279">
          <mxGeometry width="30" height="30" as="geometry">
            <mxRectangle width="30" height="30" as="alternateBounds" />
          </mxGeometry>
        </mxCell>
        <mxCell id="ApzVfPZ92ETSSqykohNE-281" value="id" style="shape=partialRectangle;connectable=0;fillColor=none;top=0;left=0;bottom=0;right=0;align=left;spacingLeft=6;fontStyle=5;overflow=hidden;whiteSpace=wrap;html=1;fontFamily=Fira Code;spacing=2;spacingTop=0;verticalAlign=middle;" vertex="1" parent="ApzVfPZ92ETSSqykohNE-279">
          <mxGeometry x="30" width="150" height="30" as="geometry">
            <mxRectangle width="150" height="30" as="alternateBounds" />
          </mxGeometry>
        </mxCell>
        <mxCell id="ApzVfPZ92ETSSqykohNE-285" value="" style="shape=tableRow;horizontal=0;startSize=0;swimlaneHead=0;swimlaneBody=0;fillColor=none;collapsible=0;dropTarget=0;points=[[0,0.5],[1,0.5]];portConstraint=eastwest;top=0;left=0;right=0;bottom=0;fontFamily=Fira Code;spacing=2;spacingTop=0;verticalAlign=middle;" vertex="1" parent="ApzVfPZ92ETSSqykohNE-278">
          <mxGeometry y="60" width="180" height="30" as="geometry" />
        </mxCell>
        <mxCell id="ApzVfPZ92ETSSqykohNE-286" value="" style="shape=partialRectangle;connectable=0;fillColor=none;top=0;left=0;bottom=0;right=0;editable=1;overflow=hidden;whiteSpace=wrap;html=1;fontFamily=Fira Code;spacing=2;spacingTop=0;verticalAlign=middle;" vertex="1" parent="ApzVfPZ92ETSSqykohNE-285">
          <mxGeometry width="30" height="30" as="geometry">
            <mxRectangle width="30" height="30" as="alternateBounds" />
          </mxGeometry>
        </mxCell>
        <mxCell id="ApzVfPZ92ETSSqykohNE-287" value="name" style="shape=partialRectangle;connectable=0;fillColor=none;top=0;left=0;bottom=0;right=0;align=left;spacingLeft=6;overflow=hidden;whiteSpace=wrap;html=1;fontFamily=Fira Code;spacing=2;spacingTop=0;verticalAlign=middle;" vertex="1" parent="ApzVfPZ92ETSSqykohNE-285">
          <mxGeometry x="30" width="150" height="30" as="geometry">
            <mxRectangle width="150" height="30" as="alternateBounds" />
          </mxGeometry>
        </mxCell>
        <mxCell id="ApzVfPZ92ETSSqykohNE-289" value="&lt;font face=&quot;Fira Code&quot;&gt;RECORDS SERVICE&lt;/font&gt;" style="swimlane;whiteSpace=wrap;html=1;fillColor=#DADADA;" vertex="1" parent="1">
          <mxGeometry x="860" y="430" width="260" height="250" as="geometry" />
        </mxCell>
        <mxCell id="ApzVfPZ92ETSSqykohNE-290" value="&lt;font face=&quot;Fira Code&quot;&gt;&lt;b&gt;Records&lt;/b&gt;&lt;/font&gt;" style="shape=table;startSize=30;container=1;collapsible=1;childLayout=tableLayout;fixedRows=1;rowLines=0;align=center;resizeLast=1;html=1;spacing=2;spacingTop=0;verticalAlign=middle;" vertex="1" parent="ApzVfPZ92ETSSqykohNE-289">
          <mxGeometry x="40" y="60" width="180" height="150" as="geometry">
            <mxRectangle x="80" y="80" width="70" height="30" as="alternateBounds" />
          </mxGeometry>
        </mxCell>
        <mxCell id="ApzVfPZ92ETSSqykohNE-291" value="" style="shape=tableRow;horizontal=0;startSize=0;swimlaneHead=0;swimlaneBody=0;fillColor=none;collapsible=0;dropTarget=0;points=[[0,0.5],[1,0.5]];portConstraint=eastwest;top=0;left=0;right=0;bottom=1;fontFamily=Fira Code;spacing=2;spacingTop=0;verticalAlign=middle;" vertex="1" parent="ApzVfPZ92ETSSqykohNE-290">
          <mxGeometry y="30" width="180" height="30" as="geometry" />
        </mxCell>
        <mxCell id="ApzVfPZ92ETSSqykohNE-292" value="PK" style="shape=partialRectangle;connectable=0;fillColor=none;top=0;left=0;bottom=0;right=0;fontStyle=1;overflow=hidden;whiteSpace=wrap;html=1;fontFamily=Fira Code;spacing=2;spacingTop=0;verticalAlign=middle;" vertex="1" parent="ApzVfPZ92ETSSqykohNE-291">
          <mxGeometry width="30" height="30" as="geometry">
            <mxRectangle width="30" height="30" as="alternateBounds" />
          </mxGeometry>
        </mxCell>
        <mxCell id="ApzVfPZ92ETSSqykohNE-293" value="id" style="shape=partialRectangle;connectable=0;fillColor=none;top=0;left=0;bottom=0;right=0;align=left;spacingLeft=6;fontStyle=5;overflow=hidden;whiteSpace=wrap;html=1;fontFamily=Fira Code;spacing=2;spacingTop=0;verticalAlign=middle;" vertex="1" parent="ApzVfPZ92ETSSqykohNE-291">
          <mxGeometry x="30" width="150" height="30" as="geometry">
            <mxRectangle width="150" height="30" as="alternateBounds" />
          </mxGeometry>
        </mxCell>
        <mxCell id="ApzVfPZ92ETSSqykohNE-294" value="" style="shape=tableRow;horizontal=0;startSize=0;swimlaneHead=0;swimlaneBody=0;fillColor=none;collapsible=0;dropTarget=0;points=[[0,0.5],[1,0.5]];portConstraint=eastwest;top=0;left=0;right=0;bottom=0;fontFamily=Fira Code;spacing=2;spacingTop=0;verticalAlign=middle;" vertex="1" parent="ApzVfPZ92ETSSqykohNE-290">
          <mxGeometry y="60" width="180" height="30" as="geometry" />
        </mxCell>
        <mxCell id="ApzVfPZ92ETSSqykohNE-295" value="" style="shape=partialRectangle;connectable=0;fillColor=none;top=0;left=0;bottom=0;right=0;editable=1;overflow=hidden;whiteSpace=wrap;html=1;fontFamily=Fira Code;spacing=2;spacingTop=0;verticalAlign=middle;" vertex="1" parent="ApzVfPZ92ETSSqykohNE-294">
          <mxGeometry width="30" height="30" as="geometry">
            <mxRectangle width="30" height="30" as="alternateBounds" />
          </mxGeometry>
        </mxCell>
        <mxCell id="ApzVfPZ92ETSSqykohNE-296" value="name" style="shape=partialRectangle;connectable=0;fillColor=none;top=0;left=0;bottom=0;right=0;align=left;spacingLeft=6;overflow=hidden;whiteSpace=wrap;html=1;fontFamily=Fira Code;spacing=2;spacingTop=0;verticalAlign=middle;" vertex="1" parent="ApzVfPZ92ETSSqykohNE-294">
          <mxGeometry x="30" width="150" height="30" as="geometry">
            <mxRectangle width="150" height="30" as="alternateBounds" />
          </mxGeometry>
        </mxCell>
        <mxCell id="ApzVfPZ92ETSSqykohNE-297" value="" style="shape=tableRow;horizontal=0;startSize=0;swimlaneHead=0;swimlaneBody=0;fillColor=none;collapsible=0;dropTarget=0;points=[[0,0.5],[1,0.5]];portConstraint=eastwest;top=0;left=0;right=0;bottom=0;fontFamily=Fira Code;spacing=2;spacingTop=0;verticalAlign=middle;" vertex="1" parent="ApzVfPZ92ETSSqykohNE-290">
          <mxGeometry y="90" width="180" height="30" as="geometry" />
        </mxCell>
        <mxCell id="ApzVfPZ92ETSSqykohNE-298" value="" style="shape=partialRectangle;connectable=0;fillColor=none;top=0;left=0;bottom=0;right=0;editable=1;overflow=hidden;whiteSpace=wrap;html=1;fontFamily=Fira Code;spacing=2;spacingTop=0;verticalAlign=middle;" vertex="1" parent="ApzVfPZ92ETSSqykohNE-297">
          <mxGeometry width="30" height="30" as="geometry">
            <mxRectangle width="30" height="30" as="alternateBounds" />
          </mxGeometry>
        </mxCell>
        <mxCell id="ApzVfPZ92ETSSqykohNE-299" value="url" style="shape=partialRectangle;connectable=0;fillColor=none;top=0;left=0;bottom=0;right=0;align=left;spacingLeft=6;overflow=hidden;whiteSpace=wrap;html=1;fontFamily=Fira Code;spacing=2;spacingTop=0;verticalAlign=middle;" vertex="1" parent="ApzVfPZ92ETSSqykohNE-297">
          <mxGeometry x="30" width="150" height="30" as="geometry">
            <mxRectangle width="150" height="30" as="alternateBounds" />
          </mxGeometry>
        </mxCell>
        <mxCell id="ApzVfPZ92ETSSqykohNE-300" value="" style="shape=tableRow;horizontal=0;startSize=0;swimlaneHead=0;swimlaneBody=0;fillColor=none;collapsible=0;dropTarget=0;points=[[0,0.5],[1,0.5]];portConstraint=eastwest;top=0;left=0;right=0;bottom=0;fontFamily=Fira Code;spacing=2;spacingTop=0;verticalAlign=middle;" vertex="1" parent="ApzVfPZ92ETSSqykohNE-290">
          <mxGeometry y="120" width="180" height="30" as="geometry" />
        </mxCell>
        <mxCell id="ApzVfPZ92ETSSqykohNE-301" value="" style="shape=partialRectangle;connectable=0;fillColor=none;top=0;left=0;bottom=0;right=0;editable=1;overflow=hidden;whiteSpace=wrap;html=1;fontFamily=Fira Code;spacing=2;spacingTop=0;verticalAlign=middle;" vertex="1" parent="ApzVfPZ92ETSSqykohNE-300">
          <mxGeometry width="30" height="30" as="geometry">
            <mxRectangle width="30" height="30" as="alternateBounds" />
          </mxGeometry>
        </mxCell>
        <mxCell id="ApzVfPZ92ETSSqykohNE-302" value="type" style="shape=partialRectangle;connectable=0;fillColor=none;top=0;left=0;bottom=0;right=0;align=left;spacingLeft=6;overflow=hidden;whiteSpace=wrap;html=1;fontFamily=Fira Code;spacing=2;spacingTop=0;verticalAlign=middle;" vertex="1" parent="ApzVfPZ92ETSSqykohNE-300">
          <mxGeometry x="30" width="150" height="30" as="geometry">
            <mxRectangle width="150" height="30" as="alternateBounds" />
          </mxGeometry>
        </mxCell>
        <mxCell id="ApzVfPZ92ETSSqykohNE-316" value="" style="endArrow=none;html=1;rounded=0;exitX=1;exitY=0.5;exitDx=0;exitDy=0;entryX=0.998;entryY=0.256;entryDx=0;entryDy=0;entryPerimeter=0;" edge="1" parent="1" source="ApzVfPZ92ETSSqykohNE-189" target="ApzVfPZ92ETSSqykohNE-278">
          <mxGeometry relative="1" as="geometry">
            <mxPoint x="990" y="220" as="sourcePoint" />
            <mxPoint x="1090" y="280" as="targetPoint" />
            <Array as="points">
              <mxPoint x="1090" y="175" />
              <mxPoint x="1090" y="283" />
            </Array>
          </mxGeometry>
        </mxCell>
      </root>
    </mxGraphModel>
  </diagram>
</mxfile>
